<svg xmlns="http://www.w3.org/2000/svg" width="1600" height="710" viewBox="0 240 1600 710">
  <defs><marker id="arrow" markerWidth="10" markerHeight="10" refX="8" refY="3" orient="auto"><path d="M0,0 L0,6 L9,3 z" fill="#2D0B2C"/></marker></defs>
  <rect width="1600" height="1040" fill="white"/>

  <rect x="50" y="300" width="300" height="260" rx="12" fill="#FFF9F4" stroke="#6D1D6A" stroke-width="2"/>
  <text x="200" y="350" text-anchor="middle" font-size="38" font-weight="700" fill="#2D0B2C">Customer Users</text>
  <text x="78" y="410" font-size="32" fill="#2D0B2C">Sign in with SSO</text>
  <text x="78" y="460" font-size="32" fill="#2D0B2C">Submit workflow</text>
  <text x="78" y="505" font-size="32" fill="#2D0B2C">data</text>

  <rect x="440" y="300" width="300" height="260" rx="12" fill="#FFF9F4" stroke="#6D1D6A" stroke-width="2"/>
  <text x="590" y="350" text-anchor="middle" font-size="38" font-weight="700" fill="#2D0B2C">Application API</text>
  <text x="468" y="410" font-size="32" fill="#2D0B2C">Validate access</text>
  <text x="468" y="460" font-size="32" fill="#2D0B2C">Apply tenant scope</text>

  <rect x="860" y="270" width="320" height="320" rx="12" fill="#FFF9F4" stroke="#6D1D6A" stroke-width="2"/>
  <text x="1020" y="320" text-anchor="middle" font-size="38" font-weight="700" fill="#2D0B2C">Workflow Store</text>
  <text x="888" y="380" font-size="32" fill="#2D0B2C">Workflow records</text>
  <text x="888" y="430" font-size="32" fill="#2D0B2C">Documents</text>
  <text x="888" y="480" font-size="32" fill="#2D0B2C">Audit trail</text>

  <rect x="1290" y="300" width="300" height="260" rx="12" fill="#FFF9F4" stroke="#6D1D6A" stroke-width="2"/>
  <text x="1440" y="350" text-anchor="middle" font-size="38" font-weight="700" fill="#2D0B2C">Integrations</text>
  <text x="1318" y="410" font-size="32" fill="#2D0B2C">ERP / WMS updates</text>
  <text x="1318" y="460" font-size="32" fill="#2D0B2C">Email notifications</text>

  <rect x="860" y="690" width="320" height="240" rx="12" fill="#FFF9F4" stroke="#6D1D6A" stroke-width="2"/>
  <text x="1020" y="740" text-anchor="middle" font-size="38" font-weight="700" fill="#2D0B2C">Operations</text>
  <text x="888" y="800" font-size="32" fill="#2D0B2C">Retries</text>
  <text x="888" y="850" font-size="32" fill="#2D0B2C">Dead-letter review</text>
  <text x="888" y="900" font-size="32" fill="#2D0B2C">Monitoring</text>

  <line x1="350" y1="430" x2="440" y2="430" stroke="#2D0B2C" stroke-width="3" marker-end="url(#arrow)"/>
  <rect x="362" y="370" width="66" height="45" rx="4" fill="white"/><text x="395" y="404" text-anchor="middle" font-size="28" fill="#2D0B2C">TLS</text>
  <line x1="740" y1="430" x2="860" y2="430" stroke="#2D0B2C" stroke-width="3" marker-end="url(#arrow)"/>
  <rect x="760" y="350" width="80" height="80" rx="4" fill="white"/>
  <text x="800" y="380" text-anchor="middle" font-size="28" fill="#2D0B2C">scoped</text><text x="800" y="418" text-anchor="middle" font-size="28" fill="#2D0B2C">data</text>
  <line x1="1180" y1="430" x2="1290" y2="430" stroke="#2D0B2C" stroke-width="3" marker-end="url(#arrow)"/>
  <rect x="1192" y="370" width="86" height="45" rx="4" fill="white"/><text x="1235" y="404" text-anchor="middle" font-size="28" fill="#2D0B2C">events</text>
  <line x1="1020" y1="590" x2="1020" y2="690" stroke="#2D0B2C" stroke-width="3" marker-end="url(#arrow)"/>
</svg>
